<?xml version="1.0" encoding="utf-8" standalone="no"?>
<!DOCTYPE svg PUBLIC "-//W3C//DTD SVG 1.1//EN"
  "http://www.w3.org/Graphics/SVG/1.1/DTD/svg11.dtd">
<!-- Created with matplotlib (https://matplotlib.org/) -->
<svg height="288pt" version="1.1" viewBox="0 0 432 288" width="432pt" xmlns="http://www.w3.org/2000/svg" xmlns:xlink="http://www.w3.org/1999/xlink">
 <defs>
  <style type="text/css">
*{stroke-linecap:butt;stroke-linejoin:round;}
  </style>
 </defs>
 <g id="figure_1">
  <g id="patch_1">
   <path d="M 0 288 
L 432 288 
L 432 0 
L 0 0 
z
" style="fill:#ffffff;"/>
  </g>
  <g id="axes_1">
   <g id="patch_2">
    <path d="M 54 252 
L 388.8 252 
L 388.8 34.56 
L 54 34.56 
z
" style="fill:#ffffff;"/>
   </g>
   <g id="PathCollection_1">
    <defs>
     <path d="M 0 3 
C 0.795609 3 1.55874 2.683901 2.12132 2.12132 
C 2.683901 1.55874 3 0.795609 3 0 
C 3 -0.795609 2.683901 -1.55874 2.12132 -2.12132 
C 1.55874 -2.683901 0.795609 -3 0 -3 
C -0.795609 -3 -1.55874 -2.683901 -2.12132 -2.12132 
C -2.683901 -1.55874 -3 -0.795609 -3 0 
C -3 0.795609 -2.683901 1.55874 -2.12132 2.12132 
C -1.55874 2.683901 -0.795609 3 0 3 
z
" id="mca1c797939" style="stroke:#1f77b4;"/>
    </defs>
    <g clip-path="url(#p211ec0f777)">
     <use style="fill:#1f77b4;stroke:#1f77b4;" x="156.165308" xlink:href="#mca1c797939" y="63.462448"/>
     <use style="fill:#1f77b4;stroke:#1f77b4;" x="148.96664" xlink:href="#mca1c797939" y="63.462448"/>
     <use style="fill:#1f77b4;stroke:#1f77b4;" x="141.053987" xlink:href="#mca1c797939" y="122.741132"/>
     <use style="fill:#1f77b4;stroke:#1f77b4;" x="164.506268" xlink:href="#mca1c797939" y="63.462448"/>
     <use style="fill:#1f77b4;stroke:#1f77b4;" x="312.821205" xlink:href="#mca1c797939" y="122.741132"/>
     <use style="fill:#1f77b4;stroke:#1f77b4;" x="232.323415" xlink:href="#mca1c797939" y="122.741132"/>
     <use style="fill:#1f77b4;stroke:#1f77b4;" x="124.723616" xlink:href="#mca1c797939" y="122.741132"/>
     <use style="fill:#1f77b4;stroke:#1f77b4;" x="103.002065" xlink:href="#mca1c797939" y="63.462448"/>
     <use style="fill:#1f77b4;stroke:#1f77b4;" x="189.605377" xlink:href="#mca1c797939" y="122.741132"/>
     <use style="fill:#1f77b4;stroke:#1f77b4;" x="145.850891" xlink:href="#mca1c797939" y="63.462448"/>
     <use style="fill:#1f77b4;stroke:#1f77b4;" x="158.039164" xlink:href="#mca1c797939" y="122.741132"/>
     <use style="fill:#1f77b4;stroke:#1f77b4;" x="166.5921" xlink:href="#mca1c797939" y="63.462448"/>
     <use style="fill:#1f77b4;stroke:#1f77b4;" x="268.653684" xlink:href="#mca1c797939" y="182.019817"/>
     <use style="fill:#1f77b4;stroke:#1f77b4;" x="272.447874" xlink:href="#mca1c797939" y="241.298501"/>
     <use style="fill:#1f77b4;stroke:#1f77b4;" x="162.746965" xlink:href="#mca1c797939" y="63.462448"/>
     <use style="fill:#1f77b4;stroke:#1f77b4;" x="203.991831" xlink:href="#mca1c797939" y="63.462448"/>
     <use style="fill:#1f77b4;stroke:#1f77b4;" x="197.664836" xlink:href="#mca1c797939" y="122.741132"/>
     <use style="fill:#1f77b4;stroke:#1f77b4;" x="158.307323" xlink:href="#mca1c797939" y="122.741132"/>
     <use style="fill:#1f77b4;stroke:#1f77b4;" x="318.802094" xlink:href="#mca1c797939" y="182.019817"/>
     <use style="fill:#1f77b4;stroke:#1f77b4;" x="82.117626" xlink:href="#mca1c797939" y="63.462448"/>
     <use style="fill:#1f77b4;stroke:#1f77b4;" x="373.279076" xlink:href="#mca1c797939" y="122.741132"/>
     <use style="fill:#1f77b4;stroke:#1f77b4;" x="100.786155" xlink:href="#mca1c797939" y="63.462448"/>
     <use style="fill:#1f77b4;stroke:#1f77b4;" x="174.73066" xlink:href="#mca1c797939" y="63.462448"/>
     <use style="fill:#1f77b4;stroke:#1f77b4;" x="269.278749" xlink:href="#mca1c797939" y="182.019817"/>
     <use style="fill:#1f77b4;stroke:#1f77b4;" x="262.332513" xlink:href="#mca1c797939" y="182.019817"/>
     <use style="fill:#1f77b4;stroke:#1f77b4;" x="254.594668" xlink:href="#mca1c797939" y="122.741132"/>
     <use style="fill:#1f77b4;stroke:#1f77b4;" x="142.578282" xlink:href="#mca1c797939" y="63.462448"/>
     <use style="fill:#1f77b4;stroke:#1f77b4;" x="213.997481" xlink:href="#mca1c797939" y="63.462448"/>
     <use style="fill:#1f77b4;stroke:#1f77b4;" x="138.253645" xlink:href="#mca1c797939" y="63.462448"/>
     <use style="fill:#1f77b4;stroke:#1f77b4;" x="133.840806" xlink:href="#mca1c797939" y="63.462448"/>
     <use style="fill:#1f77b4;stroke:#1f77b4;" x="125.447437" xlink:href="#mca1c797939" y="63.462448"/>
     <use style="fill:#1f77b4;stroke:#1f77b4;" x="147.487087" xlink:href="#mca1c797939" y="63.462448"/>
     <use style="fill:#1f77b4;stroke:#1f77b4;" x="289.821879" xlink:href="#mca1c797939" y="122.741132"/>
     <use style="fill:#1f77b4;stroke:#1f77b4;" x="216.529352" xlink:href="#mca1c797939" y="122.741132"/>
     <use style="fill:#1f77b4;stroke:#1f77b4;" x="123.705813" xlink:href="#mca1c797939" y="122.741132"/>
     <use style="fill:#1f77b4;stroke:#1f77b4;" x="103.865014" xlink:href="#mca1c797939" y="63.462448"/>
     <use style="fill:#1f77b4;stroke:#1f77b4;" x="169.56838" xlink:href="#mca1c797939" y="122.741132"/>
     <use style="fill:#1f77b4;stroke:#1f77b4;" x="240.436006" xlink:href="#mca1c797939" y="182.019817"/>
     <use style="fill:#1f77b4;stroke:#1f77b4;" x="129.221047" xlink:href="#mca1c797939" y="63.462448"/>
     <use style="fill:#1f77b4;stroke:#1f77b4;" x="157.955514" xlink:href="#mca1c797939" y="122.741132"/>
     <use style="fill:#1f77b4;stroke:#1f77b4;" x="152.572636" xlink:href="#mca1c797939" y="122.741132"/>
     <use style="fill:#1f77b4;stroke:#1f77b4;" x="256.140538" xlink:href="#mca1c797939" y="182.019817"/>
     <use style="fill:#1f77b4;stroke:#1f77b4;" x="280.299654" xlink:href="#mca1c797939" y="241.298501"/>
     <use style="fill:#1f77b4;stroke:#1f77b4;" x="146.581898" xlink:href="#mca1c797939" y="63.462448"/>
     <use style="fill:#1f77b4;stroke:#1f77b4;" x="186.658243" xlink:href="#mca1c797939" y="63.462448"/>
     <use style="fill:#1f77b4;stroke:#1f77b4;" x="197.503491" xlink:href="#mca1c797939" y="122.741132"/>
     <use style="fill:#1f77b4;stroke:#1f77b4;" x="132.016451" xlink:href="#mca1c797939" y="122.741132"/>
     <use style="fill:#1f77b4;stroke:#1f77b4;" x="254.782009" xlink:href="#mca1c797939" y="182.019817"/>
     <use style="fill:#1f77b4;stroke:#1f77b4;" x="82.232897" xlink:href="#mca1c797939" y="63.462448"/>
     <use style="fill:#1f77b4;stroke:#1f77b4;" x="297.504486" xlink:href="#mca1c797939" y="241.298501"/>
     <use style="fill:#1f77b4;stroke:#1f77b4;" x="339.223191" xlink:href="#mca1c797939" y="122.741132"/>
     <use style="fill:#1f77b4;stroke:#1f77b4;" x="100.470712" xlink:href="#mca1c797939" y="63.462448"/>
     <use style="fill:#1f77b4;stroke:#1f77b4;" x="136.393905" xlink:href="#mca1c797939" y="63.462448"/>
     <use style="fill:#1f77b4;stroke:#1f77b4;" x="222.600774" xlink:href="#mca1c797939" y="182.019817"/>
     <use style="fill:#1f77b4;stroke:#1f77b4;" x="240.372641" xlink:href="#mca1c797939" y="182.019817"/>
     <use style="fill:#1f77b4;stroke:#1f77b4;" x="212.936765" xlink:href="#mca1c797939" y="122.741132"/>
     <use style="fill:#1f77b4;stroke:#1f77b4;" x="119.639002" xlink:href="#mca1c797939" y="63.462448"/>
     <use style="fill:#1f77b4;stroke:#1f77b4;" x="173.639103" xlink:href="#mca1c797939" y="63.462448"/>
     <use style="fill:#1f77b4;stroke:#1f77b4;" x="136.798817" xlink:href="#mca1c797939" y="63.462448"/>
     <use style="fill:#1f77b4;stroke:#1f77b4;" x="131.30977" xlink:href="#mca1c797939" y="63.462448"/>
     <use style="fill:#1f77b4;stroke:#1f77b4;" x="119.430583" xlink:href="#mca1c797939" y="122.741132"/>
     <use style="fill:#1f77b4;stroke:#1f77b4;" x="146.409132" xlink:href="#mca1c797939" y="63.462448"/>
     <use style="fill:#1f77b4;stroke:#1f77b4;" x="111.764372" xlink:href="#mca1c797939" y="63.462448"/>
     <use style="fill:#1f77b4;stroke:#1f77b4;" x="286.626177" xlink:href="#mca1c797939" y="122.741132"/>
     <use style="fill:#1f77b4;stroke:#1f77b4;" x="238.20511" xlink:href="#mca1c797939" y="122.741132"/>
     <use style="fill:#1f77b4;stroke:#1f77b4;" x="116.286055" xlink:href="#mca1c797939" y="122.741132"/>
     <use style="fill:#1f77b4;stroke:#1f77b4;" x="102.235137" xlink:href="#mca1c797939" y="63.462448"/>
     <use style="fill:#1f77b4;stroke:#1f77b4;" x="193.767411" xlink:href="#mca1c797939" y="122.741132"/>
     <use style="fill:#1f77b4;stroke:#1f77b4;" x="231.539816" xlink:href="#mca1c797939" y="182.019817"/>
     <use style="fill:#1f77b4;stroke:#1f77b4;" x="127.718034" xlink:href="#mca1c797939" y="63.462448"/>
     <use style="fill:#1f77b4;stroke:#1f77b4;" x="156.691495" xlink:href="#mca1c797939" y="122.741132"/>
     <use style="fill:#1f77b4;stroke:#1f77b4;" x="153.281061" xlink:href="#mca1c797939" y="122.741132"/>
     <use style="fill:#1f77b4;stroke:#1f77b4;" x="258.377532" xlink:href="#mca1c797939" y="182.019817"/>
     <use style="fill:#1f77b4;stroke:#1f77b4;" x="279.180806" xlink:href="#mca1c797939" y="241.298501"/>
     <use style="fill:#1f77b4;stroke:#1f77b4;" x="147.062273" xlink:href="#mca1c797939" y="122.741132"/>
     <use style="fill:#1f77b4;stroke:#1f77b4;" x="130.222677" xlink:href="#mca1c797939" y="63.462448"/>
     <use style="fill:#1f77b4;stroke:#1f77b4;" x="185.922122" xlink:href="#mca1c797939" y="63.462448"/>
     <use style="fill:#1f77b4;stroke:#1f77b4;" x="219.784145" xlink:href="#mca1c797939" y="182.019817"/>
     <use style="fill:#1f77b4;stroke:#1f77b4;" x="128.442697" xlink:href="#mca1c797939" y="182.019817"/>
     <use style="fill:#1f77b4;stroke:#1f77b4;" x="253.824094" xlink:href="#mca1c797939" y="182.019817"/>
     <use style="fill:#1f77b4;stroke:#1f77b4;" x="76.468115" xlink:href="#mca1c797939" y="122.741132"/>
     <use style="fill:#1f77b4;stroke:#1f77b4;" x="290.029689" xlink:href="#mca1c797939" y="182.019817"/>
     <use style="fill:#1f77b4;stroke:#1f77b4;" x="338.803969" xlink:href="#mca1c797939" y="63.462448"/>
     <use style="fill:#1f77b4;stroke:#1f77b4;" x="98.922201" xlink:href="#mca1c797939" y="63.462448"/>
     <use style="fill:#1f77b4;stroke:#1f77b4;" x="90.837331" xlink:href="#mca1c797939" y="63.462448"/>
     <use style="fill:#1f77b4;stroke:#1f77b4;" x="155.532974" xlink:href="#mca1c797939" y="63.462448"/>
     <use style="fill:#1f77b4;stroke:#1f77b4;" x="221.84574" xlink:href="#mca1c797939" y="182.019817"/>
     <use style="fill:#1f77b4;stroke:#1f77b4;" x="239.877148" xlink:href="#mca1c797939" y="241.298501"/>
     <use style="fill:#1f77b4;stroke:#1f77b4;" x="236.518518" xlink:href="#mca1c797939" y="122.741132"/>
     <use style="fill:#1f77b4;stroke:#1f77b4;" x="112.065621" xlink:href="#mca1c797939" y="63.462448"/>
     <use style="fill:#1f77b4;stroke:#1f77b4;" x="197.0767" xlink:href="#mca1c797939" y="63.462448"/>
     <use style="fill:#1f77b4;stroke:#1f77b4;" x="136.182943" xlink:href="#mca1c797939" y="63.462448"/>
     <use style="fill:#1f77b4;stroke:#1f77b4;" x="129.509933" xlink:href="#mca1c797939" y="63.462448"/>
     <use style="fill:#1f77b4;stroke:#1f77b4;" x="117.843586" xlink:href="#mca1c797939" y="63.462448"/>
     <use style="fill:#1f77b4;stroke:#1f77b4;" x="144.3174" xlink:href="#mca1c797939" y="63.462448"/>
     <use style="fill:#1f77b4;stroke:#1f77b4;" x="284.616996" xlink:href="#mca1c797939" y="122.741132"/>
     <use style="fill:#1f77b4;stroke:#1f77b4;" x="212.385414" xlink:href="#mca1c797939" y="122.741132"/>
     <use style="fill:#1f77b4;stroke:#1f77b4;" x="114.059428" xlink:href="#mca1c797939" y="122.741132"/>
     <use style="fill:#1f77b4;stroke:#1f77b4;" x="96.501986" xlink:href="#mca1c797939" y="63.462448"/>
     <use style="fill:#1f77b4;stroke:#1f77b4;" x="192.49042" xlink:href="#mca1c797939" y="122.741132"/>
     <use style="fill:#1f77b4;stroke:#1f77b4;" x="229.239222" xlink:href="#mca1c797939" y="182.019817"/>
     <use style="fill:#1f77b4;stroke:#1f77b4;" x="121.905554" xlink:href="#mca1c797939" y="63.462448"/>
     <use style="fill:#1f77b4;stroke:#1f77b4;" x="154.530481" xlink:href="#mca1c797939" y="122.741132"/>
     <use style="fill:#1f77b4;stroke:#1f77b4;" x="177.705841" xlink:href="#mca1c797939" y="122.741132"/>
     <use style="fill:#1f77b4;stroke:#1f77b4;" x="260.105663" xlink:href="#mca1c797939" y="241.298501"/>
     <use style="fill:#1f77b4;stroke:#1f77b4;" x="273.100473" xlink:href="#mca1c797939" y="241.298501"/>
     <use style="fill:#1f77b4;stroke:#1f77b4;" x="148.984912" xlink:href="#mca1c797939" y="122.741132"/>
     <use style="fill:#1f77b4;stroke:#1f77b4;" x="128.738054" xlink:href="#mca1c797939" y="63.462448"/>
     <use style="fill:#1f77b4;stroke:#1f77b4;" x="183.985347" xlink:href="#mca1c797939" y="63.462448"/>
     <use style="fill:#1f77b4;stroke:#1f77b4;" x="193.41088" xlink:href="#mca1c797939" y="122.741132"/>
     <use style="fill:#1f77b4;stroke:#1f77b4;" x="127.046169" xlink:href="#mca1c797939" y="182.019817"/>
     <use style="fill:#1f77b4;stroke:#1f77b4;" x="246.304466" xlink:href="#mca1c797939" y="182.019817"/>
     <use style="fill:#1f77b4;stroke:#1f77b4;" x="74.625081" xlink:href="#mca1c797939" y="63.462448"/>
     <use style="fill:#1f77b4;stroke:#1f77b4;" x="288.017617" xlink:href="#mca1c797939" y="182.019817"/>
     <use style="fill:#1f77b4;stroke:#1f77b4;" x="334.369352" xlink:href="#mca1c797939" y="63.462448"/>
     <use style="fill:#1f77b4;stroke:#1f77b4;" x="98.334715" xlink:href="#mca1c797939" y="63.462448"/>
     <use style="fill:#1f77b4;stroke:#1f77b4;" x="156.876244" xlink:href="#mca1c797939" y="63.462448"/>
     <use style="fill:#1f77b4;stroke:#1f77b4;" x="245.176009" xlink:href="#mca1c797939" y="182.019817"/>
     <use style="fill:#1f77b4;stroke:#1f77b4;" x="217.854819" xlink:href="#mca1c797939" y="182.019817"/>
     <use style="fill:#1f77b4;stroke:#1f77b4;" x="237.828166" xlink:href="#mca1c797939" y="182.019817"/>
     <use style="fill:#1f77b4;stroke:#1f77b4;" x="110.41173" xlink:href="#mca1c797939" y="63.462448"/>
     <use style="fill:#1f77b4;stroke:#1f77b4;" x="172.00188" xlink:href="#mca1c797939" y="63.462448"/>
     <use style="fill:#1f77b4;stroke:#1f77b4;" x="134.688486" xlink:href="#mca1c797939" y="63.462448"/>
     <use style="fill:#1f77b4;stroke:#1f77b4;" x="128.013991" xlink:href="#mca1c797939" y="122.741132"/>
     <use style="fill:#1f77b4;stroke:#1f77b4;" x="115.884271" xlink:href="#mca1c797939" y="122.741132"/>
     <use style="fill:#1f77b4;stroke:#1f77b4;" x="142.690345" xlink:href="#mca1c797939" y="63.462448"/>
     <use style="fill:#1f77b4;stroke:#1f77b4;" x="80.517377" xlink:href="#mca1c797939" y="63.462448"/>
     <use style="fill:#1f77b4;stroke:#1f77b4;" x="251.723802" xlink:href="#mca1c797939" y="122.741132"/>
     <use style="fill:#1f77b4;stroke:#1f77b4;" x="236.839748" xlink:href="#mca1c797939" y="122.741132"/>
     <use style="fill:#1f77b4;stroke:#1f77b4;" x="112.877583" xlink:href="#mca1c797939" y="122.741132"/>
     <use style="fill:#1f77b4;stroke:#1f77b4;" x="115.414003" xlink:href="#mca1c797939" y="63.462448"/>
     <use style="fill:#1f77b4;stroke:#1f77b4;" x="189.032136" xlink:href="#mca1c797939" y="122.741132"/>
     <use style="fill:#1f77b4;stroke:#1f77b4;" x="226.970386" xlink:href="#mca1c797939" y="182.019817"/>
     <use style="fill:#1f77b4;stroke:#1f77b4;" x="121.110066" xlink:href="#mca1c797939" y="63.462448"/>
     <use style="fill:#1f77b4;stroke:#1f77b4;" x="147.96322" xlink:href="#mca1c797939" y="122.741132"/>
     <use style="fill:#1f77b4;stroke:#1f77b4;" x="153.314928" xlink:href="#mca1c797939" y="122.741132"/>
     <use style="fill:#1f77b4;stroke:#1f77b4;" x="256.215485" xlink:href="#mca1c797939" y="241.298501"/>
     <use style="fill:#1f77b4;stroke:#1f77b4;" x="248.757509" xlink:href="#mca1c797939" y="182.019817"/>
     <use style="fill:#1f77b4;stroke:#1f77b4;" x="149.664458" xlink:href="#mca1c797939" y="63.462448"/>
     <use style="fill:#1f77b4;stroke:#1f77b4;" x="181.959685" xlink:href="#mca1c797939" y="63.462448"/>
     <use style="fill:#1f77b4;stroke:#1f77b4;" x="216.969636" xlink:href="#mca1c797939" y="122.741132"/>
     <use style="fill:#1f77b4;stroke:#1f77b4;" x="126.885492" xlink:href="#mca1c797939" y="182.019817"/>
     <use style="fill:#1f77b4;stroke:#1f77b4;" x="244.259828" xlink:href="#mca1c797939" y="122.741132"/>
     <use style="fill:#1f77b4;stroke:#1f77b4;" x="71.515417" xlink:href="#mca1c797939" y="122.741132"/>
     <use style="fill:#1f77b4;stroke:#1f77b4;" x="256.523594" xlink:href="#mca1c797939" y="182.019817"/>
     <use style="fill:#1f77b4;stroke:#1f77b4;" x="333.657237" xlink:href="#mca1c797939" y="122.741132"/>
     <use style="fill:#1f77b4;stroke:#1f77b4;" x="98.821952" xlink:href="#mca1c797939" y="63.462448"/>
     <use style="fill:#1f77b4;stroke:#1f77b4;" x="88.731741" xlink:href="#mca1c797939" y="63.462448"/>
     <use style="fill:#1f77b4;stroke:#1f77b4;" x="135.095663" xlink:href="#mca1c797939" y="63.462448"/>
     <use style="fill:#1f77b4;stroke:#1f77b4;" x="269.019194" xlink:href="#mca1c797939" y="182.019817"/>
     <use style="fill:#1f77b4;stroke:#1f77b4;" x="239.88792" xlink:href="#mca1c797939" y="182.019817"/>
     <use style="fill:#1f77b4;stroke:#1f77b4;" x="233.077678" xlink:href="#mca1c797939" y="182.019817"/>
     <use style="fill:#1f77b4;stroke:#1f77b4;" x="130.894989" xlink:href="#mca1c797939" y="63.462448"/>
     <use style="fill:#1f77b4;stroke:#1f77b4;" x="195.028935" xlink:href="#mca1c797939" y="63.462448"/>
     <use style="fill:#1f77b4;stroke:#1f77b4;" x="134.577157" xlink:href="#mca1c797939" y="63.462448"/>
     <use style="fill:#1f77b4;stroke:#1f77b4;" x="120.862851" xlink:href="#mca1c797939" y="63.462448"/>
     <use style="fill:#1f77b4;stroke:#1f77b4;" x="140.065417" xlink:href="#mca1c797939" y="122.741132"/>
     <use style="fill:#1f77b4;stroke:#1f77b4;" x="152.510995" xlink:href="#mca1c797939" y="63.462448"/>
     <use style="fill:#1f77b4;stroke:#1f77b4;" x="102.509793" xlink:href="#mca1c797939" y="63.462448"/>
     <use style="fill:#1f77b4;stroke:#1f77b4;" x="242.058419" xlink:href="#mca1c797939" y="122.741132"/>
     <use style="fill:#1f77b4;stroke:#1f77b4;" x="209.438999" xlink:href="#mca1c797939" y="122.741132"/>
     <use style="fill:#1f77b4;stroke:#1f77b4;" x="111.262493" xlink:href="#mca1c797939" y="63.462448"/>
     <use style="fill:#1f77b4;stroke:#1f77b4;" x="113.217048" xlink:href="#mca1c797939" y="63.462448"/>
     <use style="fill:#1f77b4;stroke:#1f77b4;" x="188.029874" xlink:href="#mca1c797939" y="122.741132"/>
     <use style="fill:#1f77b4;stroke:#1f77b4;" x="235.456219" xlink:href="#mca1c797939" y="182.019817"/>
     <use style="fill:#1f77b4;stroke:#1f77b4;" x="141.676314" xlink:href="#mca1c797939" y="63.462448"/>
     <use style="fill:#1f77b4;stroke:#1f77b4;" x="146.966013" xlink:href="#mca1c797939" y="122.741132"/>
     <use style="fill:#1f77b4;stroke:#1f77b4;" x="151.029236" xlink:href="#mca1c797939" y="122.741132"/>
     <use style="fill:#1f77b4;stroke:#1f77b4;" x="272.214534" xlink:href="#mca1c797939" y="182.019817"/>
     <use style="fill:#1f77b4;stroke:#1f77b4;" x="264.110637" xlink:href="#mca1c797939" y="182.019817"/>
     <use style="fill:#1f77b4;stroke:#1f77b4;" x="113.543038" xlink:href="#mca1c797939" y="122.741132"/>
     <use style="fill:#1f77b4;stroke:#1f77b4;" x="117.242051" xlink:href="#mca1c797939" y="63.462448"/>
     <use style="fill:#1f77b4;stroke:#1f77b4;" x="195.562886" xlink:href="#mca1c797939" y="63.462448"/>
     <use style="fill:#1f77b4;stroke:#1f77b4;" x="186.562734" xlink:href="#mca1c797939" y="182.019817"/>
     <use style="fill:#1f77b4;stroke:#1f77b4;" x="125.57851" xlink:href="#mca1c797939" y="182.019817"/>
     <use style="fill:#1f77b4;stroke:#1f77b4;" x="237.855709" xlink:href="#mca1c797939" y="182.019817"/>
     <use style="fill:#1f77b4;stroke:#1f77b4;" x="70.201425" xlink:href="#mca1c797939" y="122.741132"/>
     <use style="fill:#1f77b4;stroke:#1f77b4;" x="266.972241" xlink:href="#mca1c797939" y="182.019817"/>
     <use style="fill:#1f77b4;stroke:#1f77b4;" x="364.318855" xlink:href="#mca1c797939" y="122.741132"/>
     <use style="fill:#1f77b4;stroke:#1f77b4;" x="92.425617" xlink:href="#mca1c797939" y="63.462448"/>
     <use style="fill:#1f77b4;stroke:#1f77b4;" x="87.623773" xlink:href="#mca1c797939" y="63.462448"/>
     <use style="fill:#1f77b4;stroke:#1f77b4;" x="254.390518" xlink:href="#mca1c797939" y="122.741132"/>
     <use style="fill:#1f77b4;stroke:#1f77b4;" x="193.977155" xlink:href="#mca1c797939" y="182.019817"/>
     <use style="fill:#1f77b4;stroke:#1f77b4;" x="232.217623" xlink:href="#mca1c797939" y="182.019817"/>
     <use style="fill:#1f77b4;stroke:#1f77b4;" x="129.535022" xlink:href="#mca1c797939" y="63.462448"/>
     <use style="fill:#1f77b4;stroke:#1f77b4;" x="183.621338" xlink:href="#mca1c797939" y="122.741132"/>
     <use style="fill:#1f77b4;stroke:#1f77b4;" x="128.197661" xlink:href="#mca1c797939" y="63.462448"/>
     <use style="fill:#1f77b4;stroke:#1f77b4;" x="120.536467" xlink:href="#mca1c797939" y="63.462448"/>
     <use style="fill:#1f77b4;stroke:#1f77b4;" x="139.573219" xlink:href="#mca1c797939" y="122.741132"/>
     <use style="fill:#1f77b4;stroke:#1f77b4;" x="102.023668" xlink:href="#mca1c797939" y="63.462448"/>
     <use style="fill:#1f77b4;stroke:#1f77b4;" x="223.848342" xlink:href="#mca1c797939" y="122.741132"/>
     <use style="fill:#1f77b4;stroke:#1f77b4;" x="204.69275" xlink:href="#mca1c797939" y="122.741132"/>
     <use style="fill:#1f77b4;stroke:#1f77b4;" x="109.335643" xlink:href="#mca1c797939" y="122.741132"/>
     <use style="fill:#1f77b4;stroke:#1f77b4;" x="187.813468" xlink:href="#mca1c797939" y="122.741132"/>
     <use style="fill:#1f77b4;stroke:#1f77b4;" x="218.186596" xlink:href="#mca1c797939" y="182.019817"/>
     <use style="fill:#1f77b4;stroke:#1f77b4;" x="140.507309" xlink:href="#mca1c797939" y="63.462448"/>
     <use style="fill:#1f77b4;stroke:#1f77b4;" x="151.058605" xlink:href="#mca1c797939" y="122.741132"/>
     <use style="fill:#1f77b4;stroke:#1f77b4;" x="251.145691" xlink:href="#mca1c797939" y="182.019817"/>
     <use style="fill:#1f77b4;stroke:#1f77b4;" x="247.896134" xlink:href="#mca1c797939" y="182.019817"/>
     <use style="fill:#1f77b4;stroke:#1f77b4;" x="110.586434" xlink:href="#mca1c797939" y="63.462448"/>
     <use style="fill:#1f77b4;stroke:#1f77b4;" x="179.860737" xlink:href="#mca1c797939" y="63.462448"/>
     <use style="fill:#1f77b4;stroke:#1f77b4;" x="148.314641" xlink:href="#mca1c797939" y="182.019817"/>
     <use style="fill:#1f77b4;stroke:#1f77b4;" x="238.737871" xlink:href="#mca1c797939" y="182.019817"/>
     <use style="fill:#1f77b4;stroke:#1f77b4;" x="69.520924" xlink:href="#mca1c797939" y="122.741132"/>
     <use style="fill:#1f77b4;stroke:#1f77b4;" x="308.704412" xlink:href="#mca1c797939" y="122.741132"/>
     <use style="fill:#1f77b4;stroke:#1f77b4;" x="92.44321" xlink:href="#mca1c797939" y="63.462448"/>
     <use style="fill:#1f77b4;stroke:#1f77b4;" x="83.093805" xlink:href="#mca1c797939" y="63.462448"/>
     <use style="fill:#1f77b4;stroke:#1f77b4;" x="237.139214" xlink:href="#mca1c797939" y="122.741132"/>
     <use style="fill:#1f77b4;stroke:#1f77b4;" x="188.723522" xlink:href="#mca1c797939" y="182.019817"/>
     <use style="fill:#1f77b4;stroke:#1f77b4;" x="129.255134" xlink:href="#mca1c797939" y="63.462448"/>
     <use style="fill:#1f77b4;stroke:#1f77b4;" x="167.127326" xlink:href="#mca1c797939" y="122.741132"/>
     <use style="fill:#1f77b4;stroke:#1f77b4;" x="120.032048" xlink:href="#mca1c797939" y="63.462448"/>
     <use style="fill:#1f77b4;stroke:#1f77b4;" x="227.922305" xlink:href="#mca1c797939" y="122.741132"/>
     <use style="fill:#1f77b4;stroke:#1f77b4;" x="255.184587" xlink:href="#mca1c797939" y="122.741132"/>
     <use style="fill:#1f77b4;stroke:#1f77b4;" x="102.530426" xlink:href="#mca1c797939" y="63.462448"/>
     <use style="fill:#1f77b4;stroke:#1f77b4;" x="274.466303" xlink:href="#mca1c797939" y="122.741132"/>
    </g>
   </g>
   <g id="matplotlib.axis_1">
    <g id="xtick_1">
     <g id="line2d_1">
      <defs>
       <path d="M 0 0 
L 0 3.5 
" id="m2b3316c4e9" style="stroke:#000000;stroke-width:0.8;"/>
      </defs>
      <g>
       <use style="stroke:#000000;stroke-width:0.8;" x="112.516222" xlink:href="#m2b3316c4e9" y="252"/>
      </g>
     </g>
     <g id="text_1">
      <!-- −2 -->
      <defs>
       <path d="M 10.59375 35.5 
L 73.1875 35.5 
L 73.1875 27.203125 
L 10.59375 27.203125 
z
" id="DejaVuSans-8722"/>
       <path d="M 19.1875 8.296875 
L 53.609375 8.296875 
L 53.609375 0 
L 7.328125 0 
L 7.328125 8.296875 
Q 12.9375 14.109375 22.625 23.890625 
Q 32.328125 33.6875 34.8125 36.53125 
Q 39.546875 41.84375 41.421875 45.53125 
Q 43.3125 49.21875 43.3125 52.78125 
Q 43.3125 58.59375 39.234375 62.25 
Q 35.15625 65.921875 28.609375 65.921875 
Q 23.96875 65.921875 18.8125 64.3125 
Q 13.671875 62.703125 7.8125 59.421875 
L 7.8125 69.390625 
Q 13.765625 71.78125 18.9375 73 
Q 24.125 74.21875 28.421875 74.21875 
Q 39.75 74.21875 46.484375 68.546875 
Q 53.21875 62.890625 53.21875 53.421875 
Q 53.21875 48.921875 51.53125 44.890625 
Q 49.859375 40.875 45.40625 35.40625 
Q 44.1875 33.984375 37.640625 27.21875 
Q 31.109375 20.453125 19.1875 8.296875 
z
" id="DejaVuSans-50"/>
      </defs>
      <g transform="translate(105.145128 266.598437)scale(0.1 -0.1)">
       <use xlink:href="#DejaVuSans-8722"/>
       <use x="83.789062" xlink:href="#DejaVuSans-50"/>
      </g>
     </g>
    </g>
    <g id="xtick_2">
     <g id="line2d_2">
      <g>
       <use style="stroke:#000000;stroke-width:0.8;" x="180.088232" xlink:href="#m2b3316c4e9" y="252"/>
      </g>
     </g>
     <g id="text_2">
      <!-- 0 -->
      <defs>
       <path d="M 31.78125 66.40625 
Q 24.171875 66.40625 20.328125 58.90625 
Q 16.5 51.421875 16.5 36.375 
Q 16.5 21.390625 20.328125 13.890625 
Q 24.171875 6.390625 31.78125 6.390625 
Q 39.453125 6.390625 43.28125 13.890625 
Q 47.125 21.390625 47.125 36.375 
Q 47.125 51.421875 43.28125 58.90625 
Q 39.453125 66.40625 31.78125 66.40625 
z
M 31.78125 74.21875 
Q 44.046875 74.21875 50.515625 64.515625 
Q 56.984375 54.828125 56.984375 36.375 
Q 56.984375 17.96875 50.515625 8.265625 
Q 44.046875 -1.421875 31.78125 -1.421875 
Q 19.53125 -1.421875 13.0625 8.265625 
Q 6.59375 17.96875 6.59375 36.375 
Q 6.59375 54.828125 13.0625 64.515625 
Q 19.53125 74.21875 31.78125 74.21875 
z
" id="DejaVuSans-48"/>
      </defs>
      <g transform="translate(176.906982 266.598437)scale(0.1 -0.1)">
       <use xlink:href="#DejaVuSans-48"/>
      </g>
     </g>
    </g>
    <g id="xtick_3">
     <g id="line2d_3">
      <g>
       <use style="stroke:#000000;stroke-width:0.8;" x="247.660241" xlink:href="#m2b3316c4e9" y="252"/>
      </g>
     </g>
     <g id="text_3">
      <!-- 2 -->
      <g transform="translate(244.478991 266.598437)scale(0.1 -0.1)">
       <use xlink:href="#DejaVuSans-50"/>
      </g>
     </g>
    </g>
    <g id="xtick_4">
     <g id="line2d_4">
      <g>
       <use style="stroke:#000000;stroke-width:0.8;" x="315.232251" xlink:href="#m2b3316c4e9" y="252"/>
      </g>
     </g>
     <g id="text_4">
      <!-- 4 -->
      <defs>
       <path d="M 37.796875 64.3125 
L 12.890625 25.390625 
L 37.796875 25.390625 
z
M 35.203125 72.90625 
L 47.609375 72.90625 
L 47.609375 25.390625 
L 58.015625 25.390625 
L 58.015625 17.1875 
L 47.609375 17.1875 
L 47.609375 0 
L 37.796875 0 
L 37.796875 17.1875 
L 4.890625 17.1875 
L 4.890625 26.703125 
z
" id="DejaVuSans-52"/>
      </defs>
      <g transform="translate(312.051001 266.598437)scale(0.1 -0.1)">
       <use xlink:href="#DejaVuSans-52"/>
      </g>
     </g>
    </g>
    <g id="xtick_5">
     <g id="line2d_5">
      <g>
       <use style="stroke:#000000;stroke-width:0.8;" x="382.804261" xlink:href="#m2b3316c4e9" y="252"/>
      </g>
     </g>
     <g id="text_5">
      <!-- 6 -->
      <defs>
       <path d="M 33.015625 40.375 
Q 26.375 40.375 22.484375 35.828125 
Q 18.609375 31.296875 18.609375 23.390625 
Q 18.609375 15.53125 22.484375 10.953125 
Q 26.375 6.390625 33.015625 6.390625 
Q 39.65625 6.390625 43.53125 10.953125 
Q 47.40625 15.53125 47.40625 23.390625 
Q 47.40625 31.296875 43.53125 35.828125 
Q 39.65625 40.375 33.015625 40.375 
z
M 52.59375 71.296875 
L 52.59375 62.3125 
Q 48.875 64.0625 45.09375 64.984375 
Q 41.3125 65.921875 37.59375 65.921875 
Q 27.828125 65.921875 22.671875 59.328125 
Q 17.53125 52.734375 16.796875 39.40625 
Q 19.671875 43.65625 24.015625 45.921875 
Q 28.375 48.1875 33.59375 48.1875 
Q 44.578125 48.1875 50.953125 41.515625 
Q 57.328125 34.859375 57.328125 23.390625 
Q 57.328125 12.15625 50.6875 5.359375 
Q 44.046875 -1.421875 33.015625 -1.421875 
Q 20.359375 -1.421875 13.671875 8.265625 
Q 6.984375 17.96875 6.984375 36.375 
Q 6.984375 53.65625 15.1875 63.9375 
Q 23.390625 74.21875 37.203125 74.21875 
Q 40.921875 74.21875 44.703125 73.484375 
Q 48.484375 72.75 52.59375 71.296875 
z
" id="DejaVuSans-54"/>
      </defs>
      <g transform="translate(379.623011 266.598437)scale(0.1 -0.1)">
       <use xlink:href="#DejaVuSans-54"/>
      </g>
     </g>
    </g>
    <g id="text_6">
     <!-- Principal Component -->
     <defs>
      <path d="M 19.671875 64.796875 
L 19.671875 37.40625 
L 32.078125 37.40625 
Q 38.96875 37.40625 42.71875 40.96875 
Q 46.484375 44.53125 46.484375 51.125 
Q 46.484375 57.671875 42.71875 61.234375 
Q 38.96875 64.796875 32.078125 64.796875 
z
M 9.8125 72.90625 
L 32.078125 72.90625 
Q 44.34375 72.90625 50.609375 67.359375 
Q 56.890625 61.8125 56.890625 51.125 
Q 56.890625 40.328125 50.609375 34.8125 
Q 44.34375 29.296875 32.078125 29.296875 
L 19.671875 29.296875 
L 19.671875 0 
L 9.8125 0 
z
" id="DejaVuSans-80"/>
      <path d="M 41.109375 46.296875 
Q 39.59375 47.171875 37.8125 47.578125 
Q 36.03125 48 33.890625 48 
Q 26.265625 48 22.1875 43.046875 
Q 18.109375 38.09375 18.109375 28.8125 
L 18.109375 0 
L 9.078125 0 
L 9.078125 54.6875 
L 18.109375 54.6875 
L 18.109375 46.1875 
Q 20.953125 51.171875 25.484375 53.578125 
Q 30.03125 56 36.53125 56 
Q 37.453125 56 38.578125 55.875 
Q 39.703125 55.765625 41.0625 55.515625 
z
" id="DejaVuSans-114"/>
      <path d="M 9.421875 54.6875 
L 18.40625 54.6875 
L 18.40625 0 
L 9.421875 0 
z
M 9.421875 75.984375 
L 18.40625 75.984375 
L 18.40625 64.59375 
L 9.421875 64.59375 
z
" id="DejaVuSans-105"/>
      <path d="M 54.890625 33.015625 
L 54.890625 0 
L 45.90625 0 
L 45.90625 32.71875 
Q 45.90625 40.484375 42.875 44.328125 
Q 39.84375 48.1875 33.796875 48.1875 
Q 26.515625 48.1875 22.3125 43.546875 
Q 18.109375 38.921875 18.109375 30.90625 
L 18.109375 0 
L 9.078125 0 
L 9.078125 54.6875 
L 18.109375 54.6875 
L 18.109375 46.1875 
Q 21.34375 51.125 25.703125 53.5625 
Q 30.078125 56 35.796875 56 
Q 45.21875 56 50.046875 50.171875 
Q 54.890625 44.34375 54.890625 33.015625 
z
" id="DejaVuSans-110"/>
      <path d="M 48.78125 52.59375 
L 48.78125 44.1875 
Q 44.96875 46.296875 41.140625 47.34375 
Q 37.3125 48.390625 33.40625 48.390625 
Q 24.65625 48.390625 19.8125 42.84375 
Q 14.984375 37.3125 14.984375 27.296875 
Q 14.984375 17.28125 19.8125 11.734375 
Q 24.65625 6.203125 33.40625 6.203125 
Q 37.3125 6.203125 41.140625 7.25 
Q 44.96875 8.296875 48.78125 10.40625 
L 48.78125 2.09375 
Q 45.015625 0.34375 40.984375 -0.53125 
Q 36.96875 -1.421875 32.421875 -1.421875 
Q 20.0625 -1.421875 12.78125 6.34375 
Q 5.515625 14.109375 5.515625 27.296875 
Q 5.515625 40.671875 12.859375 48.328125 
Q 20.21875 56 33.015625 56 
Q 37.15625 56 41.109375 55.140625 
Q 45.0625 54.296875 48.78125 52.59375 
z
" id="DejaVuSans-99"/>
      <path d="M 18.109375 8.203125 
L 18.109375 -20.796875 
L 9.078125 -20.796875 
L 9.078125 54.6875 
L 18.109375 54.6875 
L 18.109375 46.390625 
Q 20.953125 51.265625 25.265625 53.625 
Q 29.59375 56 35.59375 56 
Q 45.5625 56 51.78125 48.09375 
Q 58.015625 40.1875 58.015625 27.296875 
Q 58.015625 14.40625 51.78125 6.484375 
Q 45.5625 -1.421875 35.59375 -1.421875 
Q 29.59375 -1.421875 25.265625 0.953125 
Q 20.953125 3.328125 18.109375 8.203125 
z
M 48.6875 27.296875 
Q 48.6875 37.203125 44.609375 42.84375 
Q 40.53125 48.484375 33.40625 48.484375 
Q 26.265625 48.484375 22.1875 42.84375 
Q 18.109375 37.203125 18.109375 27.296875 
Q 18.109375 17.390625 22.1875 11.75 
Q 26.265625 6.109375 33.40625 6.109375 
Q 40.53125 6.109375 44.609375 11.75 
Q 48.6875 17.390625 48.6875 27.296875 
z
" id="DejaVuSans-112"/>
      <path d="M 34.28125 27.484375 
Q 23.390625 27.484375 19.1875 25 
Q 14.984375 22.515625 14.984375 16.5 
Q 14.984375 11.71875 18.140625 8.90625 
Q 21.296875 6.109375 26.703125 6.109375 
Q 34.1875 6.109375 38.703125 11.40625 
Q 43.21875 16.703125 43.21875 25.484375 
L 43.21875 27.484375 
z
M 52.203125 31.203125 
L 52.203125 0 
L 43.21875 0 
L 43.21875 8.296875 
Q 40.140625 3.328125 35.546875 0.953125 
Q 30.953125 -1.421875 24.3125 -1.421875 
Q 15.921875 -1.421875 10.953125 3.296875 
Q 6 8.015625 6 15.921875 
Q 6 25.140625 12.171875 29.828125 
Q 18.359375 34.515625 30.609375 34.515625 
L 43.21875 34.515625 
L 43.21875 35.40625 
Q 43.21875 41.609375 39.140625 45 
Q 35.0625 48.390625 27.6875 48.390625 
Q 23 48.390625 18.546875 47.265625 
Q 14.109375 46.140625 10.015625 43.890625 
L 10.015625 52.203125 
Q 14.9375 54.109375 19.578125 55.046875 
Q 24.21875 56 28.609375 56 
Q 40.484375 56 46.34375 49.84375 
Q 52.203125 43.703125 52.203125 31.203125 
z
" id="DejaVuSans-97"/>
      <path d="M 9.421875 75.984375 
L 18.40625 75.984375 
L 18.40625 0 
L 9.421875 0 
z
" id="DejaVuSans-108"/>
      <path id="DejaVuSans-32"/>
      <path d="M 64.40625 67.28125 
L 64.40625 56.890625 
Q 59.421875 61.53125 53.78125 63.8125 
Q 48.140625 66.109375 41.796875 66.109375 
Q 29.296875 66.109375 22.65625 58.46875 
Q 16.015625 50.828125 16.015625 36.375 
Q 16.015625 21.96875 22.65625 14.328125 
Q 29.296875 6.6875 41.796875 6.6875 
Q 48.140625 6.6875 53.78125 8.984375 
Q 59.421875 11.28125 64.40625 15.921875 
L 64.40625 5.609375 
Q 59.234375 2.09375 53.4375 0.328125 
Q 47.65625 -1.421875 41.21875 -1.421875 
Q 24.65625 -1.421875 15.125 8.703125 
Q 5.609375 18.84375 5.609375 36.375 
Q 5.609375 53.953125 15.125 64.078125 
Q 24.65625 74.21875 41.21875 74.21875 
Q 47.75 74.21875 53.53125 72.484375 
Q 59.328125 70.75 64.40625 67.28125 
z
" id="DejaVuSans-67"/>
      <path d="M 30.609375 48.390625 
Q 23.390625 48.390625 19.1875 42.75 
Q 14.984375 37.109375 14.984375 27.296875 
Q 14.984375 17.484375 19.15625 11.84375 
Q 23.34375 6.203125 30.609375 6.203125 
Q 37.796875 6.203125 41.984375 11.859375 
Q 46.1875 17.53125 46.1875 27.296875 
Q 46.1875 37.015625 41.984375 42.703125 
Q 37.796875 48.390625 30.609375 48.390625 
z
M 30.609375 56 
Q 42.328125 56 49.015625 48.375 
Q 55.71875 40.765625 55.71875 27.296875 
Q 55.71875 13.875 49.015625 6.21875 
Q 42.328125 -1.421875 30.609375 -1.421875 
Q 18.84375 -1.421875 12.171875 6.21875 
Q 5.515625 13.875 5.515625 27.296875 
Q 5.515625 40.765625 12.171875 48.375 
Q 18.84375 56 30.609375 56 
z
" id="DejaVuSans-111"/>
      <path d="M 52 44.1875 
Q 55.375 50.25 60.0625 53.125 
Q 64.75 56 71.09375 56 
Q 79.640625 56 84.28125 50.015625 
Q 88.921875 44.046875 88.921875 33.015625 
L 88.921875 0 
L 79.890625 0 
L 79.890625 32.71875 
Q 79.890625 40.578125 77.09375 44.375 
Q 74.3125 48.1875 68.609375 48.1875 
Q 61.625 48.1875 57.5625 43.546875 
Q 53.515625 38.921875 53.515625 30.90625 
L 53.515625 0 
L 44.484375 0 
L 44.484375 32.71875 
Q 44.484375 40.625 41.703125 44.40625 
Q 38.921875 48.1875 33.109375 48.1875 
Q 26.21875 48.1875 22.15625 43.53125 
Q 18.109375 38.875 18.109375 30.90625 
L 18.109375 0 
L 9.078125 0 
L 9.078125 54.6875 
L 18.109375 54.6875 
L 18.109375 46.1875 
Q 21.1875 51.21875 25.484375 53.609375 
Q 29.78125 56 35.6875 56 
Q 41.65625 56 45.828125 52.96875 
Q 50 49.953125 52 44.1875 
z
" id="DejaVuSans-109"/>
      <path d="M 56.203125 29.59375 
L 56.203125 25.203125 
L 14.890625 25.203125 
Q 15.484375 15.921875 20.484375 11.0625 
Q 25.484375 6.203125 34.421875 6.203125 
Q 39.59375 6.203125 44.453125 7.46875 
Q 49.3125 8.734375 54.109375 11.28125 
L 54.109375 2.78125 
Q 49.265625 0.734375 44.1875 -0.34375 
Q 39.109375 -1.421875 33.890625 -1.421875 
Q 20.796875 -1.421875 13.15625 6.1875 
Q 5.515625 13.8125 5.515625 26.8125 
Q 5.515625 40.234375 12.765625 48.109375 
Q 20.015625 56 32.328125 56 
Q 43.359375 56 49.78125 48.890625 
Q 56.203125 41.796875 56.203125 29.59375 
z
M 47.21875 32.234375 
Q 47.125 39.59375 43.09375 43.984375 
Q 39.0625 48.390625 32.421875 48.390625 
Q 24.90625 48.390625 20.390625 44.140625 
Q 15.875 39.890625 15.1875 32.171875 
z
" id="DejaVuSans-101"/>
      <path d="M 18.3125 70.21875 
L 18.3125 54.6875 
L 36.8125 54.6875 
L 36.8125 47.703125 
L 18.3125 47.703125 
L 18.3125 18.015625 
Q 18.3125 11.328125 20.140625 9.421875 
Q 21.96875 7.515625 27.59375 7.515625 
L 36.8125 7.515625 
L 36.8125 0 
L 27.59375 0 
Q 17.1875 0 13.234375 3.875 
Q 9.28125 7.765625 9.28125 18.015625 
L 9.28125 47.703125 
L 2.6875 47.703125 
L 2.6875 54.6875 
L 9.28125 54.6875 
L 9.28125 70.21875 
z
" id="DejaVuSans-116"/>
     </defs>
     <g transform="translate(169.389062 280.276563)scale(0.1 -0.1)">
      <use xlink:href="#DejaVuSans-80"/>
      <use x="60.287109" xlink:href="#DejaVuSans-114"/>
      <use x="101.400391" xlink:href="#DejaVuSans-105"/>
      <use x="129.183594" xlink:href="#DejaVuSans-110"/>
      <use x="192.5625" xlink:href="#DejaVuSans-99"/>
      <use x="247.542969" xlink:href="#DejaVuSans-105"/>
      <use x="275.326172" xlink:href="#DejaVuSans-112"/>
      <use x="338.802734" xlink:href="#DejaVuSans-97"/>
      <use x="400.082031" xlink:href="#DejaVuSans-108"/>
      <use x="427.865234" xlink:href="#DejaVuSans-32"/>
      <use x="459.652344" xlink:href="#DejaVuSans-67"/>
      <use x="529.476562" xlink:href="#DejaVuSans-111"/>
      <use x="590.658203" xlink:href="#DejaVuSans-109"/>
      <use x="688.070312" xlink:href="#DejaVuSans-112"/>
      <use x="751.546875" xlink:href="#DejaVuSans-111"/>
      <use x="812.728516" xlink:href="#DejaVuSans-110"/>
      <use x="876.107422" xlink:href="#DejaVuSans-101"/>
      <use x="937.630859" xlink:href="#DejaVuSans-110"/>
      <use x="1001.009766" xlink:href="#DejaVuSans-116"/>
     </g>
    </g>
   </g>
   <g id="matplotlib.axis_2">
    <g id="ytick_1">
     <g id="line2d_6">
      <defs>
       <path d="M 0 0 
L -3.5 0 
" id="m73a34a960c" style="stroke:#000000;stroke-width:0.8;"/>
      </defs>
      <g>
       <use style="stroke:#000000;stroke-width:0.8;" x="54" xlink:href="#m73a34a960c" y="241.298501"/>
      </g>
     </g>
     <g id="text_7">
      <!-- 4.0 -->
      <defs>
       <path d="M 10.6875 12.40625 
L 21 12.40625 
L 21 0 
L 10.6875 0 
z
" id="DejaVuSans-46"/>
      </defs>
      <g transform="translate(31.096875 245.09772)scale(0.1 -0.1)">
       <use xlink:href="#DejaVuSans-52"/>
       <use x="63.623047" xlink:href="#DejaVuSans-46"/>
       <use x="95.410156" xlink:href="#DejaVuSans-48"/>
      </g>
     </g>
    </g>
    <g id="ytick_2">
     <g id="line2d_7">
      <g>
       <use style="stroke:#000000;stroke-width:0.8;" x="54" xlink:href="#m73a34a960c" y="211.659159"/>
      </g>
     </g>
     <g id="text_8">
      <!-- 4.5 -->
      <defs>
       <path d="M 10.796875 72.90625 
L 49.515625 72.90625 
L 49.515625 64.59375 
L 19.828125 64.59375 
L 19.828125 46.734375 
Q 21.96875 47.46875 24.109375 47.828125 
Q 26.265625 48.1875 28.421875 48.1875 
Q 40.625 48.1875 47.75 41.5 
Q 54.890625 34.8125 54.890625 23.390625 
Q 54.890625 11.625 47.5625 5.09375 
Q 40.234375 -1.421875 26.90625 -1.421875 
Q 22.3125 -1.421875 17.546875 -0.640625 
Q 12.796875 0.140625 7.71875 1.703125 
L 7.71875 11.625 
Q 12.109375 9.234375 16.796875 8.0625 
Q 21.484375 6.890625 26.703125 6.890625 
Q 35.15625 6.890625 40.078125 11.328125 
Q 45.015625 15.765625 45.015625 23.390625 
Q 45.015625 31 40.078125 35.4375 
Q 35.15625 39.890625 26.703125 39.890625 
Q 22.75 39.890625 18.8125 39.015625 
Q 14.890625 38.140625 10.796875 36.28125 
z
" id="DejaVuSans-53"/>
      </defs>
      <g transform="translate(31.096875 215.458378)scale(0.1 -0.1)">
       <use xlink:href="#DejaVuSans-52"/>
       <use x="63.623047" xlink:href="#DejaVuSans-46"/>
       <use x="95.410156" xlink:href="#DejaVuSans-53"/>
      </g>
     </g>
    </g>
    <g id="ytick_3">
     <g id="line2d_8">
      <g>
       <use style="stroke:#000000;stroke-width:0.8;" x="54" xlink:href="#m73a34a960c" y="182.019817"/>
      </g>
     </g>
     <g id="text_9">
      <!-- 5.0 -->
      <g transform="translate(31.096875 185.819035)scale(0.1 -0.1)">
       <use xlink:href="#DejaVuSans-53"/>
       <use x="63.623047" xlink:href="#DejaVuSans-46"/>
       <use x="95.410156" xlink:href="#DejaVuSans-48"/>
      </g>
     </g>
    </g>
    <g id="ytick_4">
     <g id="line2d_9">
      <g>
       <use style="stroke:#000000;stroke-width:0.8;" x="54" xlink:href="#m73a34a960c" y="152.380474"/>
      </g>
     </g>
     <g id="text_10">
      <!-- 5.5 -->
      <g transform="translate(31.096875 156.179693)scale(0.1 -0.1)">
       <use xlink:href="#DejaVuSans-53"/>
       <use x="63.623047" xlink:href="#DejaVuSans-46"/>
       <use x="95.410156" xlink:href="#DejaVuSans-53"/>
      </g>
     </g>
    </g>
    <g id="ytick_5">
     <g id="line2d_10">
      <g>
       <use style="stroke:#000000;stroke-width:0.8;" x="54" xlink:href="#m73a34a960c" y="122.741132"/>
      </g>
     </g>
     <g id="text_11">
      <!-- 6.0 -->
      <g transform="translate(31.096875 126.540351)scale(0.1 -0.1)">
       <use xlink:href="#DejaVuSans-54"/>
       <use x="63.623047" xlink:href="#DejaVuSans-46"/>
       <use x="95.410156" xlink:href="#DejaVuSans-48"/>
      </g>
     </g>
    </g>
    <g id="ytick_6">
     <g id="line2d_11">
      <g>
       <use style="stroke:#000000;stroke-width:0.8;" x="54" xlink:href="#m73a34a960c" y="93.10179"/>
      </g>
     </g>
     <g id="text_12">
      <!-- 6.5 -->
      <g transform="translate(31.096875 96.901009)scale(0.1 -0.1)">
       <use xlink:href="#DejaVuSans-54"/>
       <use x="63.623047" xlink:href="#DejaVuSans-46"/>
       <use x="95.410156" xlink:href="#DejaVuSans-53"/>
      </g>
     </g>
    </g>
    <g id="ytick_7">
     <g id="line2d_12">
      <g>
       <use style="stroke:#000000;stroke-width:0.8;" x="54" xlink:href="#m73a34a960c" y="63.462448"/>
      </g>
     </g>
     <g id="text_13">
      <!-- 7.0 -->
      <defs>
       <path d="M 8.203125 72.90625 
L 55.078125 72.90625 
L 55.078125 68.703125 
L 28.609375 0 
L 18.3125 0 
L 43.21875 64.59375 
L 8.203125 64.59375 
z
" id="DejaVuSans-55"/>
      </defs>
      <g transform="translate(31.096875 67.261666)scale(0.1 -0.1)">
       <use xlink:href="#DejaVuSans-55"/>
       <use x="63.623047" xlink:href="#DejaVuSans-46"/>
       <use x="95.410156" xlink:href="#DejaVuSans-48"/>
      </g>
     </g>
    </g>
    <g id="text_14">
     <!-- Happiness Index -->
     <defs>
      <path d="M 9.8125 72.90625 
L 19.671875 72.90625 
L 19.671875 43.015625 
L 55.515625 43.015625 
L 55.515625 72.90625 
L 65.375 72.90625 
L 65.375 0 
L 55.515625 0 
L 55.515625 34.71875 
L 19.671875 34.71875 
L 19.671875 0 
L 9.8125 0 
z
" id="DejaVuSans-72"/>
      <path d="M 44.28125 53.078125 
L 44.28125 44.578125 
Q 40.484375 46.53125 36.375 47.5 
Q 32.28125 48.484375 27.875 48.484375 
Q 21.1875 48.484375 17.84375 46.4375 
Q 14.5 44.390625 14.5 40.28125 
Q 14.5 37.15625 16.890625 35.375 
Q 19.28125 33.59375 26.515625 31.984375 
L 29.59375 31.296875 
Q 39.15625 29.25 43.1875 25.515625 
Q 47.21875 21.78125 47.21875 15.09375 
Q 47.21875 7.46875 41.1875 3.015625 
Q 35.15625 -1.421875 24.609375 -1.421875 
Q 20.21875 -1.421875 15.453125 -0.5625 
Q 10.6875 0.296875 5.421875 2 
L 5.421875 11.28125 
Q 10.40625 8.6875 15.234375 7.390625 
Q 20.0625 6.109375 24.8125 6.109375 
Q 31.15625 6.109375 34.5625 8.28125 
Q 37.984375 10.453125 37.984375 14.40625 
Q 37.984375 18.0625 35.515625 20.015625 
Q 33.0625 21.96875 24.703125 23.78125 
L 21.578125 24.515625 
Q 13.234375 26.265625 9.515625 29.90625 
Q 5.8125 33.546875 5.8125 39.890625 
Q 5.8125 47.609375 11.28125 51.796875 
Q 16.75 56 26.8125 56 
Q 31.78125 56 36.171875 55.265625 
Q 40.578125 54.546875 44.28125 53.078125 
z
" id="DejaVuSans-115"/>
      <path d="M 9.8125 72.90625 
L 19.671875 72.90625 
L 19.671875 0 
L 9.8125 0 
z
" id="DejaVuSans-73"/>
      <path d="M 45.40625 46.390625 
L 45.40625 75.984375 
L 54.390625 75.984375 
L 54.390625 0 
L 45.40625 0 
L 45.40625 8.203125 
Q 42.578125 3.328125 38.25 0.953125 
Q 33.9375 -1.421875 27.875 -1.421875 
Q 17.96875 -1.421875 11.734375 6.484375 
Q 5.515625 14.40625 5.515625 27.296875 
Q 5.515625 40.1875 11.734375 48.09375 
Q 17.96875 56 27.875 56 
Q 33.9375 56 38.25 53.625 
Q 42.578125 51.265625 45.40625 46.390625 
z
M 14.796875 27.296875 
Q 14.796875 17.390625 18.875 11.75 
Q 22.953125 6.109375 30.078125 6.109375 
Q 37.203125 6.109375 41.296875 11.75 
Q 45.40625 17.390625 45.40625 27.296875 
Q 45.40625 37.203125 41.296875 42.84375 
Q 37.203125 48.484375 30.078125 48.484375 
Q 22.953125 48.484375 18.875 42.84375 
Q 14.796875 37.203125 14.796875 27.296875 
z
" id="DejaVuSans-100"/>
      <path d="M 54.890625 54.6875 
L 35.109375 28.078125 
L 55.90625 0 
L 45.3125 0 
L 29.390625 21.484375 
L 13.484375 0 
L 2.875 0 
L 24.125 28.609375 
L 4.6875 54.6875 
L 15.28125 54.6875 
L 29.78125 35.203125 
L 44.28125 54.6875 
z
" id="DejaVuSans-120"/>
     </defs>
     <g transform="translate(25.017187 184.738594)rotate(-90)scale(0.1 -0.1)">
      <use xlink:href="#DejaVuSans-72"/>
      <use x="75.195312" xlink:href="#DejaVuSans-97"/>
      <use x="136.474609" xlink:href="#DejaVuSans-112"/>
      <use x="199.951172" xlink:href="#DejaVuSans-112"/>
      <use x="263.427734" xlink:href="#DejaVuSans-105"/>
      <use x="291.210938" xlink:href="#DejaVuSans-110"/>
      <use x="354.589844" xlink:href="#DejaVuSans-101"/>
      <use x="416.113281" xlink:href="#DejaVuSans-115"/>
      <use x="468.212891" xlink:href="#DejaVuSans-115"/>
      <use x="520.3125" xlink:href="#DejaVuSans-32"/>
      <use x="552.099609" xlink:href="#DejaVuSans-73"/>
      <use x="581.591797" xlink:href="#DejaVuSans-110"/>
      <use x="644.970703" xlink:href="#DejaVuSans-100"/>
      <use x="708.447266" xlink:href="#DejaVuSans-101"/>
      <use x="769.955078" xlink:href="#DejaVuSans-120"/>
     </g>
    </g>
   </g>
   <g id="line2d_13">
    <path clip-path="url(#p211ec0f777)" d="M 70.201425 66.779152 
L 74.625081 68.725791 
L 82.117626 72.022901 
L 90.837331 75.860026 
L 92.44321 76.566696 
L 96.501986 78.352769 
L 98.821952 79.373675 
L 102.235137 80.875654 
L 109.335643 84.000247 
L 110.41173 84.473781 
L 110.586434 84.55066 
L 111.262493 84.848161 
L 113.543038 85.85172 
L 114.059428 86.078958 
L 115.884271 86.881984 
L 116.286055 87.05879 
L 117.843586 87.744185 
L 119.430583 88.442546 
L 119.639002 88.534261 
L 120.032048 88.707222 
L 125.447437 91.090275 
L 127.718034 92.089456 
L 128.197661 92.300517 
L 129.221047 92.75086 
L 129.535022 92.889026 
L 130.222677 93.19163 
L 130.894989 93.487482 
L 133.840806 94.783795 
L 134.577157 95.107828 
L 145.850891 100.068858 
L 147.487087 100.788869 
L 148.314641 101.153036 
L 149.664458 101.747026 
L 153.314928 103.353423 
L 181.959685 115.958608 
L 183.985347 116.850005 
L 188.029874 118.629808 
L 193.41088 120.997731 
L 193.767411 121.154623 
L 193.977155 121.246921 
L 195.028935 121.709759 
L 195.562886 121.944725 
L 197.503491 122.798693 
L 197.664836 122.869693 
L 203.991831 125.6539 
L 212.385414 129.347514 
L 212.936765 129.590137 
L 217.854819 131.754337 
L 221.84574 133.51055 
L 223.848342 134.3918 
L 229.239222 136.764068 
L 231.539816 137.776449 
L 232.217623 138.07472 
L 232.323415 138.121273 
L 236.839748 140.108695 
L 242.058419 142.405182 
L 244.259828 143.373917 
L 245.176009 143.777084 
L 246.304466 144.273664 
L 248.757509 145.353131 
L 253.824094 147.582692 
L 254.594668 147.921785 
L 255.184587 148.18138 
L 256.215485 148.635029 
L 260.105663 150.34691 
L 262.332513 151.32684 
L 266.972241 153.368562 
L 268.653684 154.108484 
L 279.180806 158.740967 
L 284.616996 161.133173 
L 318.802094 176.176397 
L 338.803969 184.978264 
" style="fill:none;stroke:#1f77b4;stroke-linecap:square;stroke-width:1.5;"/>
   </g>
   <g id="line2d_14">
    <path clip-path="url(#p211ec0f777)" d="M 70.201425 44.443636 
L 74.625081 48.470117 
L 82.117626 55.128063 
L 90.837331 62.620154 
L 92.44321 63.969881 
L 96.501986 67.339561 
L 98.821952 69.238812 
L 102.235137 71.997552 
L 109.335643 77.601246 
L 110.41173 78.434537 
L 110.586434 78.569426 
L 111.262493 79.09037 
L 113.543038 80.835443 
L 114.059428 81.227965 
L 115.884271 82.607333 
L 116.286055 82.909412 
L 117.843586 84.074903 
L 119.430583 85.253393 
L 119.639002 85.407485 
L 120.032048 85.69765 
L 125.447437 89.638504 
L 127.718034 91.259205 
L 128.197661 91.599161 
L 129.221047 92.32174 
L 129.535022 92.542665 
L 130.222677 93.025279 
L 130.894989 93.495466 
L 133.840806 95.536325 
L 134.577157 96.041552 
L 145.850891 103.531213 
L 147.487087 104.579913 
L 148.314641 105.106627 
L 149.664458 105.960417 
L 153.314928 108.236326 
L 181.959685 124.417737 
L 183.985347 125.449383 
L 188.029874 127.4647 
L 193.41088 130.053998 
L 193.767411 130.221849 
L 193.977155 130.320379 
L 195.028935 130.812059 
L 195.562886 131.060133 
L 197.503491 131.95303 
L 197.664836 132.026652 
L 203.991831 134.839237 
L 212.385414 138.346463 
L 212.936765 138.567901 
L 217.854819 140.494354 
L 221.84574 141.993171 
L 223.848342 142.723499 
L 229.239222 144.617228 
L 231.539816 145.393306 
L 232.217623 145.618296 
L 232.323415 145.653262 
L 236.839748 147.108135 
L 242.058419 148.69714 
L 244.259828 149.337818 
L 245.176009 149.599276 
L 246.304466 149.917129 
L 248.757509 150.59215 
L 253.824094 151.917277 
L 254.594668 152.110659 
L 255.184587 152.257249 
L 256.215485 152.510389 
L 260.105663 153.430923 
L 262.332513 153.933164 
L 266.972241 154.921838 
L 268.653684 155.260862 
L 279.180806 157.150385 
L 284.616996 157.968786 
L 318.802094 160.659367 
L 338.803969 160.268444 
" style="fill:none;stroke:#ff7f0e;stroke-linecap:square;stroke-width:1.5;"/>
   </g>
   <g id="line2d_15">
    <path clip-path="url(#p211ec0f777)" d="M 70.201425 92.017137 
L 74.625081 88.718297 
L 82.117626 84.243946 
L 90.837331 80.697436 
L 92.44321 80.22878 
L 96.501986 79.288561 
L 98.821952 78.904255 
L 102.235137 78.534646 
L 109.335643 78.479286 
L 110.41173 78.551442 
L 110.586434 78.565093 
L 111.262493 78.62298 
L 113.543038 78.876822 
L 114.059428 78.946672 
L 115.884271 79.22942 
L 116.286055 79.299108 
L 117.843586 79.594209 
L 119.430583 79.935084 
L 119.639002 79.982821 
L 120.032048 80.074704 
L 125.447437 81.581323 
L 127.718034 82.341636 
L 128.197661 82.511586 
L 129.221047 82.884904 
L 129.535022 83.002332 
L 130.222677 83.264213 
L 130.894989 83.526433 
L 133.840806 84.745844 
L 134.577157 85.068168 
L 145.850891 90.807026 
L 147.487087 91.75531 
L 148.314641 92.245094 
L 149.664458 93.058232 
L 153.314928 95.342135 
L 181.959685 116.478377 
L 183.985347 118.114648 
L 188.029874 121.407949 
L 193.41088 125.823475 
L 193.767411 126.116709 
L 193.977155 126.289231 
L 195.028935 127.154442 
L 195.562886 127.593681 
L 197.503491 129.189486 
L 197.664836 129.322092 
L 203.991831 134.501353 
L 212.385414 141.245756 
L 212.936765 141.681101 
L 217.854819 145.50951 
L 221.84574 148.531958 
L 223.848342 150.015587 
L 229.239222 153.884017 
L 231.539816 155.473241 
L 232.217623 155.93384 
L 232.323415 156.005408 
L 236.839748 158.97578 
L 242.058419 162.183976 
L 244.259828 163.45845 
L 245.176009 163.974243 
L 246.304466 164.597393 
L 248.757509 165.904362 
L 253.824094 168.385742 
L 254.594668 168.736089 
L 255.184587 168.999294 
L 256.215485 169.448692 
L 260.105663 171.019865 
L 262.332513 171.82715 
L 266.972241 173.281812 
L 268.653684 173.729969 
L 279.180806 175.50489 
L 284.616996 175.672018 
L 318.802094 162.658519 
L 338.803969 141.537674 
" style="fill:none;stroke:#2ca02c;stroke-linecap:square;stroke-width:1.5;"/>
   </g>
   <g id="line2d_16">
    <path clip-path="url(#p211ec0f777)" d="M 70.201425 99.689809 
L 74.625081 94.387799 
L 82.117626 87.149857 
L 90.837331 81.267751 
L 92.44321 80.461014 
L 96.501986 78.781911 
L 98.821952 78.045513 
L 102.235137 77.244208 
L 109.335643 76.588341 
L 110.41173 76.60129 
L 110.586434 76.606062 
L 111.262493 76.631483 
L 113.543038 76.797383 
L 114.059428 76.851792 
L 115.884271 77.092616 
L 116.286055 77.155649 
L 117.843586 77.433406 
L 119.430583 77.769928 
L 119.639002 77.818056 
L 120.032048 77.911271 
L 125.447437 79.510124 
L 127.718034 80.346322 
L 128.197661 80.534832 
L 129.221047 80.950557 
L 129.535022 81.081741 
L 130.222677 81.374941 
L 130.894989 81.669322 
L 133.840806 83.046489 
L 134.577157 83.412246 
L 145.850891 89.969447 
L 147.487087 91.054177 
L 148.314641 91.614101 
L 149.664458 92.543055 
L 153.314928 95.146903 
L 181.959685 118.624354 
L 183.985347 120.385439 
L 188.029874 123.902515 
L 193.41088 128.55858 
L 193.767411 128.865303 
L 193.977155 129.045613 
L 195.028935 129.94823 
L 195.562886 130.405396 
L 197.503491 132.060238 
L 197.664836 132.197316 
L 203.991831 137.497524 
L 212.385414 144.232617 
L 212.936765 144.660415 
L 217.854819 148.383439 
L 221.84574 151.270287 
L 223.848342 152.669167 
L 229.239222 156.255219 
L 231.539816 157.700499 
L 232.217623 158.116091 
L 232.323415 158.180529 
L 236.839748 160.820614 
L 242.058419 163.587354 
L 244.259828 164.657814 
L 245.176009 165.085786 
L 246.304466 165.598503 
L 248.757509 166.657158 
L 253.824094 168.593243 
L 254.594668 168.857235 
L 255.184587 169.053779 
L 256.215485 169.385587 
L 260.105663 170.501763 
L 262.332513 171.04186 
L 266.972241 171.928874 
L 268.653684 172.169017 
L 279.180806 172.649173 
L 284.616996 172.180311 
L 318.802094 157.156881 
L 338.803969 138.194558 
" style="fill:none;stroke:#d62728;stroke-linecap:square;stroke-width:1.5;"/>
   </g>
   <g id="patch_3">
    <path d="M 54 252 
L 54 34.56 
" style="fill:none;stroke:#000000;stroke-linecap:square;stroke-linejoin:miter;stroke-width:0.8;"/>
   </g>
   <g id="patch_4">
    <path d="M 388.8 252 
L 388.8 34.56 
" style="fill:none;stroke:#000000;stroke-linecap:square;stroke-linejoin:miter;stroke-width:0.8;"/>
   </g>
   <g id="patch_5">
    <path d="M 54 252 
L 388.8 252 
" style="fill:none;stroke:#000000;stroke-linecap:square;stroke-linejoin:miter;stroke-width:0.8;"/>
   </g>
   <g id="patch_6">
    <path d="M 54 34.56 
L 388.8 34.56 
" style="fill:none;stroke:#000000;stroke-linecap:square;stroke-linejoin:miter;stroke-width:0.8;"/>
   </g>
   <g id="legend_1">
    <g id="patch_7">
     <path d="M 266.882812 115.950625 
L 381.8 115.950625 
Q 383.8 115.950625 383.8 113.950625 
L 383.8 41.56 
Q 383.8 39.56 381.8 39.56 
L 266.882812 39.56 
Q 264.882812 39.56 264.882812 41.56 
L 264.882812 113.950625 
Q 264.882812 115.950625 266.882812 115.950625 
z
" style="fill:#ffffff;opacity:0.8;stroke:#cccccc;stroke-linejoin:miter;"/>
    </g>
    <g id="line2d_17">
     <path d="M 268.882812 47.658437 
L 288.882812 47.658437 
" style="fill:none;stroke:#1f77b4;stroke-linecap:square;stroke-width:1.5;"/>
    </g>
    <g id="line2d_18"/>
    <g id="text_15">
     <!-- Degree = 1 -->
     <defs>
      <path d="M 19.671875 64.796875 
L 19.671875 8.109375 
L 31.59375 8.109375 
Q 46.6875 8.109375 53.6875 14.9375 
Q 60.6875 21.78125 60.6875 36.53125 
Q 60.6875 51.171875 53.6875 57.984375 
Q 46.6875 64.796875 31.59375 64.796875 
z
M 9.8125 72.90625 
L 30.078125 72.90625 
Q 51.265625 72.90625 61.171875 64.09375 
Q 71.09375 55.28125 71.09375 36.53125 
Q 71.09375 17.671875 61.125 8.828125 
Q 51.171875 0 30.078125 0 
L 9.8125 0 
z
" id="DejaVuSans-68"/>
      <path d="M 45.40625 27.984375 
Q 45.40625 37.75 41.375 43.109375 
Q 37.359375 48.484375 30.078125 48.484375 
Q 22.859375 48.484375 18.828125 43.109375 
Q 14.796875 37.75 14.796875 27.984375 
Q 14.796875 18.265625 18.828125 12.890625 
Q 22.859375 7.515625 30.078125 7.515625 
Q 37.359375 7.515625 41.375 12.890625 
Q 45.40625 18.265625 45.40625 27.984375 
z
M 54.390625 6.78125 
Q 54.390625 -7.171875 48.1875 -13.984375 
Q 42 -20.796875 29.203125 -20.796875 
Q 24.46875 -20.796875 20.265625 -20.09375 
Q 16.0625 -19.390625 12.109375 -17.921875 
L 12.109375 -9.1875 
Q 16.0625 -11.328125 19.921875 -12.34375 
Q 23.78125 -13.375 27.78125 -13.375 
Q 36.625 -13.375 41.015625 -8.765625 
Q 45.40625 -4.15625 45.40625 5.171875 
L 45.40625 9.625 
Q 42.625 4.78125 38.28125 2.390625 
Q 33.9375 0 27.875 0 
Q 17.828125 0 11.671875 7.65625 
Q 5.515625 15.328125 5.515625 27.984375 
Q 5.515625 40.671875 11.671875 48.328125 
Q 17.828125 56 27.875 56 
Q 33.9375 56 38.28125 53.609375 
Q 42.625 51.21875 45.40625 46.390625 
L 45.40625 54.6875 
L 54.390625 54.6875 
z
" id="DejaVuSans-103"/>
      <path d="M 10.59375 45.40625 
L 73.1875 45.40625 
L 73.1875 37.203125 
L 10.59375 37.203125 
z
M 10.59375 25.484375 
L 73.1875 25.484375 
L 73.1875 17.1875 
L 10.59375 17.1875 
z
" id="DejaVuSans-61"/>
      <path d="M 12.40625 8.296875 
L 28.515625 8.296875 
L 28.515625 63.921875 
L 10.984375 60.40625 
L 10.984375 69.390625 
L 28.421875 72.90625 
L 38.28125 72.90625 
L 38.28125 8.296875 
L 54.390625 8.296875 
L 54.390625 0 
L 12.40625 0 
z
" id="DejaVuSans-49"/>
     </defs>
     <g transform="translate(296.882812 51.158437)scale(0.1 -0.1)">
      <use xlink:href="#DejaVuSans-68"/>
      <use x="77.001953" xlink:href="#DejaVuSans-101"/>
      <use x="138.525391" xlink:href="#DejaVuSans-103"/>
      <use x="202.001953" xlink:href="#DejaVuSans-114"/>
      <use x="243.083984" xlink:href="#DejaVuSans-101"/>
      <use x="304.607422" xlink:href="#DejaVuSans-101"/>
      <use x="366.130859" xlink:href="#DejaVuSans-32"/>
      <use x="397.917969" xlink:href="#DejaVuSans-61"/>
      <use x="481.707031" xlink:href="#DejaVuSans-32"/>
      <use x="513.494141" xlink:href="#DejaVuSans-49"/>
     </g>
    </g>
    <g id="line2d_19">
     <path d="M 268.882812 62.336562 
L 288.882812 62.336562 
" style="fill:none;stroke:#ff7f0e;stroke-linecap:square;stroke-width:1.5;"/>
    </g>
    <g id="line2d_20"/>
    <g id="text_16">
     <!-- Degree = 2 -->
     <g transform="translate(296.882812 65.836562)scale(0.1 -0.1)">
      <use xlink:href="#DejaVuSans-68"/>
      <use x="77.001953" xlink:href="#DejaVuSans-101"/>
      <use x="138.525391" xlink:href="#DejaVuSans-103"/>
      <use x="202.001953" xlink:href="#DejaVuSans-114"/>
      <use x="243.083984" xlink:href="#DejaVuSans-101"/>
      <use x="304.607422" xlink:href="#DejaVuSans-101"/>
      <use x="366.130859" xlink:href="#DejaVuSans-32"/>
      <use x="397.917969" xlink:href="#DejaVuSans-61"/>
      <use x="481.707031" xlink:href="#DejaVuSans-32"/>
      <use x="513.494141" xlink:href="#DejaVuSans-50"/>
     </g>
    </g>
    <g id="line2d_21">
     <path d="M 268.882812 77.014687 
L 288.882812 77.014687 
" style="fill:none;stroke:#2ca02c;stroke-linecap:square;stroke-width:1.5;"/>
    </g>
    <g id="line2d_22"/>
    <g id="text_17">
     <!-- Degree = 3 -->
     <defs>
      <path d="M 40.578125 39.3125 
Q 47.65625 37.796875 51.625 33 
Q 55.609375 28.21875 55.609375 21.1875 
Q 55.609375 10.40625 48.1875 4.484375 
Q 40.765625 -1.421875 27.09375 -1.421875 
Q 22.515625 -1.421875 17.65625 -0.515625 
Q 12.796875 0.390625 7.625 2.203125 
L 7.625 11.71875 
Q 11.71875 9.328125 16.59375 8.109375 
Q 21.484375 6.890625 26.8125 6.890625 
Q 36.078125 6.890625 40.9375 10.546875 
Q 45.796875 14.203125 45.796875 21.1875 
Q 45.796875 27.640625 41.28125 31.265625 
Q 36.765625 34.90625 28.71875 34.90625 
L 20.21875 34.90625 
L 20.21875 43.015625 
L 29.109375 43.015625 
Q 36.375 43.015625 40.234375 45.921875 
Q 44.09375 48.828125 44.09375 54.296875 
Q 44.09375 59.90625 40.109375 62.90625 
Q 36.140625 65.921875 28.71875 65.921875 
Q 24.65625 65.921875 20.015625 65.03125 
Q 15.375 64.15625 9.8125 62.3125 
L 9.8125 71.09375 
Q 15.4375 72.65625 20.34375 73.4375 
Q 25.25 74.21875 29.59375 74.21875 
Q 40.828125 74.21875 47.359375 69.109375 
Q 53.90625 64.015625 53.90625 55.328125 
Q 53.90625 49.265625 50.4375 45.09375 
Q 46.96875 40.921875 40.578125 39.3125 
z
" id="DejaVuSans-51"/>
     </defs>
     <g transform="translate(296.882812 80.514687)scale(0.1 -0.1)">
      <use xlink:href="#DejaVuSans-68"/>
      <use x="77.001953" xlink:href="#DejaVuSans-101"/>
      <use x="138.525391" xlink:href="#DejaVuSans-103"/>
      <use x="202.001953" xlink:href="#DejaVuSans-114"/>
      <use x="243.083984" xlink:href="#DejaVuSans-101"/>
      <use x="304.607422" xlink:href="#DejaVuSans-101"/>
      <use x="366.130859" xlink:href="#DejaVuSans-32"/>
      <use x="397.917969" xlink:href="#DejaVuSans-61"/>
      <use x="481.707031" xlink:href="#DejaVuSans-32"/>
      <use x="513.494141" xlink:href="#DejaVuSans-51"/>
     </g>
    </g>
    <g id="line2d_23">
     <path d="M 268.882812 91.692813 
L 288.882812 91.692813 
" style="fill:none;stroke:#d62728;stroke-linecap:square;stroke-width:1.5;"/>
    </g>
    <g id="line2d_24"/>
    <g id="text_18">
     <!-- Degree = 4 -->
     <g transform="translate(296.882812 95.192813)scale(0.1 -0.1)">
      <use xlink:href="#DejaVuSans-68"/>
      <use x="77.001953" xlink:href="#DejaVuSans-101"/>
      <use x="138.525391" xlink:href="#DejaVuSans-103"/>
      <use x="202.001953" xlink:href="#DejaVuSans-114"/>
      <use x="243.083984" xlink:href="#DejaVuSans-101"/>
      <use x="304.607422" xlink:href="#DejaVuSans-101"/>
      <use x="366.130859" xlink:href="#DejaVuSans-32"/>
      <use x="397.917969" xlink:href="#DejaVuSans-61"/>
      <use x="481.707031" xlink:href="#DejaVuSans-32"/>
      <use x="513.494141" xlink:href="#DejaVuSans-52"/>
     </g>
    </g>
    <g id="PathCollection_2">
     <g>
      <use style="fill:#1f77b4;stroke:#1f77b4;" x="278.882812" xlink:href="#mca1c797939" y="107.245937"/>
     </g>
    </g>
    <g id="text_19">
     <!-- Happiness Index -->
     <g transform="translate(296.882812 109.870937)scale(0.1 -0.1)">
      <use xlink:href="#DejaVuSans-72"/>
      <use x="75.195312" xlink:href="#DejaVuSans-97"/>
      <use x="136.474609" xlink:href="#DejaVuSans-112"/>
      <use x="199.951172" xlink:href="#DejaVuSans-112"/>
      <use x="263.427734" xlink:href="#DejaVuSans-105"/>
      <use x="291.210938" xlink:href="#DejaVuSans-110"/>
      <use x="354.589844" xlink:href="#DejaVuSans-101"/>
      <use x="416.113281" xlink:href="#DejaVuSans-115"/>
      <use x="468.212891" xlink:href="#DejaVuSans-115"/>
      <use x="520.3125" xlink:href="#DejaVuSans-32"/>
      <use x="552.099609" xlink:href="#DejaVuSans-73"/>
      <use x="581.591797" xlink:href="#DejaVuSans-110"/>
      <use x="644.970703" xlink:href="#DejaVuSans-100"/>
      <use x="708.447266" xlink:href="#DejaVuSans-101"/>
      <use x="769.955078" xlink:href="#DejaVuSans-120"/>
     </g>
    </g>
   </g>
  </g>
 </g>
 <defs>
  <clipPath id="p211ec0f777">
   <rect height="217.44" width="334.8" x="54" y="34.56"/>
  </clipPath>
 </defs>
</svg>
